<svg xmlns="http://www.w3.org/2000/svg" width="24" height="24" viewBox="0 0 24 24" xmlns:xlink="http://www.w3.org/1999/xlink">
  <path id="a" d="M16.4464675,15.0314823 L20,18.5 L18.5,20 L15.0314823,16.4464675 C14.4360769,16.7981802 13.7416072,17 13,17 C10.790861,17 9,15.209139 9,13 C9,10.790861 10.790861,9 13,9 C15.209139,9 17,10.790861 17,13 C17,13.7416072 16.7981802,14.4360769 16.4464675,15.0314823 Z M7.10074833,15.1007483 L2,10 L8,4 L9.4,5.4 L4.8,10 L7.21230979,12.4123098 C7.07390148,12.9180162 7,13.4503778 7,14 C7,14.3759965 7.03458535,14.7439152 7.10074833,15.1007483 Z M18.1982936,11.0017064 L19.2,10 L14.6,5.4 L16,4 L22,10 L18.9285801,13.0714199 C18.8129993,12.3274828 18.5607454,11.6287533 18.1982936,11.0017064 Z M13,15 C14.1045695,15 15,14.1045695 15,13 C15,11.8954305 14.1045695,11 13,11 C11.8954305,11 11,11.8954305 11,13 C11,14.1045695 11.8954305,15 13,15 Z"/>
</svg>
