<svg xmlns="http://www.w3.org/2000/svg" width="24" height="24" viewBox="0 0 24 24" xmlns:xlink="http://www.w3.org/1999/xlink">
  <defs>
    <path id="a" d="M13,7 L11,7 L11,9 L13,9 L13,7 Z M13,11 L11,11 L11,17 L13,17 L13,11 Z M17,1.01 L7,1 C5.9,1 5,1.9 5,3 L5,21 C5,22.1 5.9,23 7,23 L17,23 C18.1,23 19,22.1 19,21 L19,3 C19,1.9 18.1,1.01 17,1.01 L17,1.01 Z M17,19 L7,19 L7,5 L17,5 L17,19 Z"/>
  </defs>
  <g fill="none" fill-rule="evenodd">
    <rect width="24" height="24"/>
    <mask id="b" fill="white">
      <use xlink:href="#a"/>
    </mask>
    <use fill="#000000" fill-rule="nonzero" xlink:href="#a"/>
    <rect width="24" height="24" fill="#000000" mask="url(#b)"/>
  </g>
</svg>
