<svg xmlns="http://www.w3.org/2000/svg" width="24" height="24" viewBox="0 0 24 24" xmlns:xlink="http://www.w3.org/1999/xlink">
  <defs>
    <path id="a" d="M13,3 L11,3 L11,13 L13,13 L13,3 Z M15.11,6.89 C16.84,7.94 18,9.83 18,12 C18,15.31 15.31,18 12,18 C8.69,18 6,15.31 6,12 C6,9.83 7.16,7.94 8.88,6.88 L7.44,5.44 C5.36,6.88 4,9.28 4,12 C4,16.42 7.58,20 12,20 C16.42,20 20,16.42 20,12 C20,9.28 18.64,6.88 16.56,5.44 L15.11,6.89 Z"/>
  </defs>
  <g fill="none" fill-rule="evenodd">
    <rect width="24" height="24"/>
    <mask id="b" fill="white">
      <use xlink:href="#a"/>
    </mask>
    <use fill="#000000" fill-rule="nonzero" xlink:href="#a"/>
    <rect width="24" height="24" fill="#000000" mask="url(#b)"/>
  </g>
</svg>
