<svg xmlns="http://www.w3.org/2000/svg" width="24" height="24" viewBox="0 0 24 24" xmlns:xlink="http://www.w3.org/1999/xlink">
  <defs>
    <path id="a" d="M19,15 L19,13 L21,13 L21,16 L21,18 L16,18 L16,16 L15,16 L15,21 L13,21 L13,13 L14,13 L17,13 L17,15 L19,15 Z M3,3 L11,3 L11,11 L3,11 L3,3 Z M5,5 L5,9 L9,9 L9,5 L5,5 Z M6,6 L8,6 L8,8 L6,8 L6,6 Z M3,13 L11,13 L11,21 L3,21 L3,13 Z M5,15 L5,19 L9,19 L9,15 L5,15 Z M6,16 L8,16 L8,18 L6,18 L6,16 Z M13,3 L21,3 L21,11 L13,11 L13,3 Z M15,5 L15,9 L19,9 L19,5 L15,5 Z M16,6 L18,6 L18,8 L16,8 L16,6 Z M19,19 L21,19 L21,21 L19,21 L19,19 Z M16,19 L18,19 L18,21 L16,21 L16,19 Z"/>
  </defs>
  <g fill="none" fill-rule="evenodd">
    <rect width="24" height="24"/>
    <mask id="b" fill="white">
      <use xlink:href="#a"/>
    </mask>
    <use fill="#000000" xlink:href="#a"/>
    <rect width="24" height="24" fill="#000000" mask="url(#b)"/>
  </g>
</svg>
