<svg xmlns="http://www.w3.org/2000/svg" width="24" height="24" viewBox="0 0 24 24" xmlns:xlink="http://www.w3.org/1999/xlink">
  <defs>
    <path id="a" d="M18,2 L22,6 L18,6 L18,2 L18,2 Z M4,2 L18,2 L18,22 L15,20 L13,22 L11,20 L9,22 L7,20 L4,22 L4,2 Z M7,8 L15,8 L15,6 L7,6 L7,8 Z M7,12 L15,12 L15,10 L7,10 L7,12 Z M7,16 L10,16 L10,14 L7,14 L7,16 Z"/>
  </defs>
  <g fill="none" fill-rule="evenodd">
    <rect width="24" height="24"/>
    <mask id="b" fill="white">
      <use xlink:href="#a"/>
    </mask>
    <use fill="#000000" xlink:href="#a"/>
    <rect width="24" height="24" fill="#000000" mask="url(#b)"/>
  </g>
</svg>
