<svg xmlns="http://www.w3.org/2000/svg" width="24" height="24" viewBox="0 0 24 24" xmlns:xlink="http://www.w3.org/1999/xlink">
  <path id="a" d="M19,1 C20.1,1 21,1.9 21,3 L21,21 C21,22.1 20.1,23 19,23 L9,23 C7.9,23 7,22.1 7,21 L7,18 L9,18 L9,20 L19,20 L19,4 L9,4 L9,9 L7,9 L7,3 C7,1.9 7.9,1 9,1 L19,1 Z M7,12 L5.50016487,12 C4.67432225,12 4,12.6715729 4,13.5 C4,14.3342028 4.67164669,15 5.50016487,15 L7,15 L7,16 L5.5,16 C4.11928813,16 3,14.8903379 3,13.5 C3,12.1192881 4.10966206,11 5.5,11 L7,11 L7,12 Z M9,12 L9,11 L10.5,11 C11.8903379,11 13,12.1192881 13,13.5 C13,14.8903379 11.8807119,16 10.5,16 L9,16 L9,15 L10.4998351,15 C11.3283533,15 12,14.3342028 12,13.5 C12,12.6715729 11.3256778,12 10.4998351,12 L9,12 Z M6,13 L10,13 L10,14 L6,14 L6,13 Z"/>
</svg>
