<svg xmlns="http://www.w3.org/2000/svg" width="24" height="24" viewBox="0 0 24 24" xmlns:xlink="http://www.w3.org/1999/xlink">
  <path id="a" d="M20,15.5 C20.55,15.5 21,15.95 21,16.5 L21,20 C21,20.55 20.55,21 20,21 C10.61,21 3,13.39 3,4 C3,3.45 3.45,3 4,3 L7.5,3 C8.05,3 8.5,3.45 8.5,4 C8.5,5.25 8.7,6.45 9.07,7.57 C9.18,7.92 9.1,8.31 8.82,8.57 L6.62,10.78 C8.06,13.62 10.38,15.93 13.21,17.37 L15.41,15.17 C15.69,14.9 16.08,14.82 16.43,14.93 C17.55,15.3 18.75,15.5 20,15.5 Z M15.06,10 L14,8.94 L16.44,6.5 L14,4.06 L15.06,3 L17.5,5.44 L19.94,3 L21,4.06 L18.56,6.5 L21,8.94 L19.94,10 L17.5,7.56 L15.06,10 Z"/>
</svg>
