<svg xmlns="http://www.w3.org/2000/svg" width="24" height="24" viewBox="0 0 24 24" xmlns:xlink="http://www.w3.org/1999/xlink">
  <path id="a" d="M22,6 L22,4 L6.82,4 L8.82,6 L22,6 Z M1.92,1.65 L0.65,2.92 L2.47,4.74 C2.18,5.08 2,5.52 2,6 L2,17 L0,17 L0,20 L17.73,20 L20.08,22.35 L21.35,21.08 L3.89,3.62 L1.92,1.65 Z M4,6.27 L14.73,17 L4,17 L4,6.27 Z M23,8 L17,8 C16.45,8 16,8.45 16,9 L16,13.18 L18,15.18 L18,10 L22,10 L22,17 L19.82,17 L22.82,20 L23,20 C23.55,20 24,19.55 24,19 L24,9 C24,8.45 23.55,8 23,8 Z"/>
</svg>
